<svg xmlns="http://www.w3.org/2000/svg" xmlns:xlink="http://www.w3.org/1999/xlink" width="300" zoomAndPan="magnify" viewBox="0 0 224.87999 225" height="300" preserveAspectRatio="xMidYMid meet" version="1.2"><defs/><g id="cb433d1e30"><g style="fill:#2196f3;fill-opacity:1;"><g transform="translate(48.572351, 195.720316)"><path style="stroke:none" d="M 129.429688 -163.820312 L 129.429688 -123.539062 L 54.375 -123.539062 L 54.375 -131.851562 L 62.6875 -131.851562 L 62.6875 -97.3125 L 54.375 -97.3125 L 54.375 -105.625 L 112.628906 -105.625 L 112.628906 -57.960938 L 54.375 -57.960938 L 54.375 -66.277344 L 62.6875 -66.277344 L 62.6875 8.3125 L 6.15625 8.3125 L 6.15625 -172.136719 L 129.429688 -172.136719 Z M 112.800781 -163.820312 L 121.117188 -163.820312 L 121.117188 -155.507812 L 14.46875 -155.507812 L 14.46875 -163.820312 L 22.78125 -163.820312 L 22.78125 0 L 14.46875 0 L 14.46875 -8.3125 L 54.375 -8.3125 L 54.375 0 L 46.058594 0 L 46.058594 -74.589844 L 104.3125 -74.589844 L 104.3125 -66.277344 L 96 -66.277344 L 96 -97.3125 L 104.3125 -97.3125 L 104.3125 -89 L 46.058594 -89 L 46.058594 -140.164062 L 121.117188 -140.164062 L 121.117188 -131.851562 L 112.800781 -131.851562 Z M 112.800781 -163.820312 "/></g></g><g style="fill:#ffffff;fill-opacity:1;"><g transform="translate(48.572351, 195.720316)"><path style="stroke:none" d="M 121.109375 -163.8125 L 121.109375 -131.84375 L 54.375 -131.84375 L 54.375 -97.3125 L 104.3125 -97.3125 L 104.3125 -66.28125 L 54.375 -66.28125 L 54.375 0 L 14.46875 0 L 14.46875 -163.8125 Z M 121.109375 -163.8125 "/></g></g></g></svg>