<svg xmlns="http://www.w3.org/2000/svg" xmlns:xlink="http://www.w3.org/1999/xlink" width="900" zoomAndPan="magnify" viewBox="0 0 675 225" height="300" preserveAspectRatio="xMidYMid meet" version="1.2"><defs/><g id="708a777e37"><g style="fill:#2196f3;fill-opacity:1;"><g transform="translate(-2.169805, 155.238489)"><path style="stroke:none" d="M 64.199219 -87.996094 L 64.199219 -73.917969 L 21.210938 -73.917969 L 21.210938 -78.652344 L 25.945312 -78.652344 L 25.945312 -48.984375 L 21.210938 -48.984375 L 21.210938 -53.71875 L 57 -53.71875 L 57 -34.90625 L 21.210938 -34.90625 L 21.210938 -39.640625 L 25.945312 -39.640625 L 25.945312 4.734375 L 4.988281 4.734375 L 4.988281 -92.730469 L 64.199219 -92.730469 Z M 54.726562 -87.996094 L 59.460938 -87.996094 L 59.460938 -83.261719 L 9.722656 -83.261719 L 9.722656 -87.996094 L 14.457031 -87.996094 L 14.457031 0 L 9.722656 0 L 9.722656 -4.734375 L 21.210938 -4.734375 L 21.210938 0 L 16.476562 0 L 16.476562 -44.375 L 52.265625 -44.375 L 52.265625 -39.640625 L 47.53125 -39.640625 L 47.53125 -48.984375 L 52.265625 -48.984375 L 52.265625 -44.25 L 16.476562 -44.25 L 16.476562 -83.386719 L 59.460938 -83.386719 L 59.460938 -78.652344 L 54.726562 -78.652344 Z M 54.726562 -87.996094 "/></g></g><g style="fill:#2196f3;fill-opacity:1;"><g transform="translate(61.44746, 155.238489)"><path style="stroke:none" d="M 39.894531 5.871094 C 32.589844 5.871094 25.949219 4.195312 19.96875 0.847656 C 13.921875 -2.539062 9.1875 -7.339844 5.761719 -13.5625 C 2.382812 -19.699219 0.695312 -26.753906 0.695312 -34.71875 C 0.695312 -42.621094 2.433594 -49.644531 5.914062 -55.796875 C 9.429688 -62.007812 14.234375 -66.78125 20.324219 -70.117188 C 26.335938 -73.410156 33.027344 -75.054688 40.398438 -75.054688 C 47.773438 -75.054688 54.464844 -73.410156 60.472656 -70.117188 C 66.558594 -66.785156 71.359375 -62.039062 74.875 -55.875 C 78.363281 -49.761719 80.105469 -42.710938 80.105469 -34.71875 C 80.105469 -26.714844 78.3125 -19.628906 74.730469 -13.464844 C 71.128906 -7.273438 66.25 -2.496094 60.09375 0.871094 C 54 4.203125 47.265625 5.871094 39.894531 5.871094 Z M 39.894531 -3.597656 C 45.652344 -3.597656 50.871094 -4.878906 55.550781 -7.4375 C 60.164062 -9.960938 63.828125 -13.554688 66.542969 -18.222656 C 69.269531 -22.917969 70.636719 -28.414062 70.636719 -34.71875 C 70.636719 -41.035156 69.304688 -46.523438 66.648438 -51.183594 C 64.019531 -55.792969 60.445312 -59.335938 55.925781 -61.8125 C 51.332031 -64.328125 46.15625 -65.585938 40.398438 -65.585938 C 34.640625 -65.585938 29.464844 -64.328125 24.871094 -61.8125 C 20.359375 -59.339844 16.785156 -55.78125 14.15625 -51.132812 C 11.496094 -46.429688 10.164062 -40.957031 10.164062 -34.71875 C 10.164062 -28.375 11.460938 -22.84375 14.058594 -18.128906 C 16.609375 -13.488281 20.125 -9.917969 24.597656 -7.414062 C 29.136719 -4.871094 34.238281 -3.597656 39.894531 -3.597656 Z M 39.894531 -13.699219 C 43.226562 -13.699219 46.355469 -14.480469 49.277344 -16.042969 C 52.097656 -17.550781 54.402344 -19.851562 56.179688 -22.941406 C 57.988281 -26.082031 58.894531 -30.007812 58.894531 -34.71875 C 58.894531 -39.441406 58.003906 -43.378906 56.222656 -46.527344 C 54.488281 -49.601562 52.253906 -51.871094 49.527344 -53.332031 C 46.6875 -54.851562 43.605469 -55.613281 40.273438 -55.613281 C 36.867188 -55.613281 33.765625 -54.855469 30.976562 -53.34375 C 28.308594 -51.894531 26.144531 -49.648438 24.484375 -46.597656 C 22.765625 -43.429688 21.90625 -39.472656 21.90625 -34.71875 C 21.90625 -29.867188 22.75 -25.855469 24.441406 -22.679688 C 26.0625 -19.636719 28.183594 -17.394531 30.808594 -15.953125 C 33.550781 -14.449219 36.578125 -13.699219 39.894531 -13.699219 Z M 39.894531 -4.230469 C 34.960938 -4.230469 30.414062 -5.371094 26.253906 -7.652344 C 21.976562 -10 18.589844 -13.523438 16.082031 -18.226562 C 13.652344 -22.792969 12.433594 -28.289062 12.433594 -34.71875 C 12.433594 -41.074219 13.679688 -46.542969 16.164062 -51.117188 C 18.714844 -55.8125 22.148438 -59.328125 26.464844 -61.667969 C 30.660156 -63.945312 35.265625 -65.082031 40.273438 -65.082031 C 45.1875 -65.082031 49.765625 -63.949219 53.996094 -61.679688 C 58.339844 -59.351562 61.828125 -55.855469 64.46875 -51.1875 C 67.066406 -46.59375 68.363281 -41.101562 68.363281 -34.71875 C 68.363281 -28.320312 67.039062 -22.816406 64.386719 -18.214844 C 61.707031 -13.5625 58.15625 -10.054688 53.742188 -7.691406 C 49.425781 -5.382812 44.808594 -4.230469 39.894531 -4.230469 Z M 39.894531 -4.230469 "/></g></g><g style="fill:#2196f3;fill-opacity:1;"><g transform="translate(142.231297, 155.238489)"><path style="stroke:none" d="M 39.894531 5.871094 C 32.589844 5.871094 25.949219 4.195312 19.96875 0.847656 C 13.921875 -2.539062 9.1875 -7.339844 5.761719 -13.5625 C 2.382812 -19.699219 0.695312 -26.753906 0.695312 -34.71875 C 0.695312 -42.621094 2.433594 -49.644531 5.914062 -55.796875 C 9.429688 -62.007812 14.234375 -66.78125 20.324219 -70.117188 C 26.335938 -73.410156 33.027344 -75.054688 40.398438 -75.054688 C 47.773438 -75.054688 54.464844 -73.410156 60.472656 -70.117188 C 66.558594 -66.785156 71.359375 -62.039062 74.875 -55.875 C 78.363281 -49.761719 80.105469 -42.710938 80.105469 -34.71875 C 80.105469 -26.714844 78.3125 -19.628906 74.730469 -13.464844 C 71.128906 -7.273438 66.25 -2.496094 60.09375 0.871094 C 54 4.203125 47.265625 5.871094 39.894531 5.871094 Z M 39.894531 -3.597656 C 45.652344 -3.597656 50.871094 -4.878906 55.550781 -7.4375 C 60.164062 -9.960938 63.828125 -13.554688 66.542969 -18.222656 C 69.269531 -22.917969 70.636719 -28.414062 70.636719 -34.71875 C 70.636719 -41.035156 69.304688 -46.523438 66.648438 -51.183594 C 64.019531 -55.792969 60.445312 -59.335938 55.925781 -61.8125 C 51.332031 -64.328125 46.15625 -65.585938 40.398438 -65.585938 C 34.640625 -65.585938 29.464844 -64.328125 24.871094 -61.8125 C 20.359375 -59.339844 16.785156 -55.78125 14.15625 -51.132812 C 11.496094 -46.429688 10.164062 -40.957031 10.164062 -34.71875 C 10.164062 -28.375 11.460938 -22.84375 14.058594 -18.128906 C 16.609375 -13.488281 20.125 -9.917969 24.597656 -7.414062 C 29.136719 -4.871094 34.238281 -3.597656 39.894531 -3.597656 Z M 39.894531 -13.699219 C 43.226562 -13.699219 46.355469 -14.480469 49.277344 -16.042969 C 52.097656 -17.550781 54.402344 -19.851562 56.179688 -22.941406 C 57.988281 -26.082031 58.894531 -30.007812 58.894531 -34.71875 C 58.894531 -39.441406 58.003906 -43.378906 56.222656 -46.527344 C 54.488281 -49.601562 52.253906 -51.871094 49.527344 -53.332031 C 46.6875 -54.851562 43.605469 -55.613281 40.273438 -55.613281 C 36.867188 -55.613281 33.765625 -54.855469 30.976562 -53.34375 C 28.308594 -51.894531 26.144531 -49.648438 24.484375 -46.597656 C 22.765625 -43.429688 21.90625 -39.472656 21.90625 -34.71875 C 21.90625 -29.867188 22.75 -25.855469 24.441406 -22.679688 C 26.0625 -19.636719 28.183594 -17.394531 30.808594 -15.953125 C 33.550781 -14.449219 36.578125 -13.699219 39.894531 -13.699219 Z M 39.894531 -4.230469 C 34.960938 -4.230469 30.414062 -5.371094 26.253906 -7.652344 C 21.976562 -10 18.589844 -13.523438 16.082031 -18.226562 C 13.652344 -22.792969 12.433594 -28.289062 12.433594 -34.71875 C 12.433594 -41.074219 13.679688 -46.542969 16.164062 -51.117188 C 18.714844 -55.8125 22.148438 -59.328125 26.464844 -61.667969 C 30.660156 -63.945312 35.265625 -65.082031 40.273438 -65.082031 C 45.1875 -65.082031 49.765625 -63.949219 53.996094 -61.679688 C 58.339844 -59.351562 61.828125 -55.855469 64.46875 -51.1875 C 67.066406 -46.59375 68.363281 -41.101562 68.363281 -34.71875 C 68.363281 -28.320312 67.039062 -22.816406 64.386719 -18.214844 C 61.707031 -13.5625 58.15625 -10.054688 53.742188 -7.691406 C 49.425781 -5.382812 44.808594 -4.230469 39.894531 -4.230469 Z M 39.894531 -4.230469 "/></g></g><g style="fill:#2196f3;fill-opacity:1;"><g transform="translate(223.015134, 155.238489)"><path style="stroke:none" d="M 0.695312 -34.84375 C 0.695312 -42.707031 2.3125 -49.660156 5.546875 -55.699219 C 8.828125 -61.828125 13.351562 -66.585938 19.125 -69.980469 C 24.875 -73.363281 31.292969 -75.054688 38.378906 -75.054688 C 44.558594 -75.054688 50.3125 -73.625 55.640625 -70.769531 C 61.03125 -67.875 65.171875 -64.039062 68.058594 -59.261719 L 64.007812 -56.8125 L 59.273438 -56.8125 L 59.273438 -98.15625 L 80.355469 -98.15625 L 80.355469 4.734375 L 59.273438 4.734375 L 59.273438 -13.003906 L 64.007812 -13.003906 L 68.15625 -10.71875 C 65.46875 -5.84375 61.523438 -1.859375 56.328125 1.230469 C 51.121094 4.324219 45.097656 5.871094 38.253906 5.871094 C 31.226562 5.871094 24.835938 4.128906 19.074219 0.640625 C 13.3125 -2.84375 8.796875 -7.714844 5.527344 -13.964844 C 2.304688 -20.125 0.695312 -27.082031 0.695312 -34.84375 Z M 10.164062 -34.84375 C 10.164062 -28.632812 11.414062 -23.136719 13.917969 -18.355469 C 16.371094 -13.664062 19.722656 -10.035156 23.976562 -7.460938 C 28.230469 -4.886719 32.988281 -3.597656 38.253906 -3.597656 C 43.363281 -3.597656 47.773438 -4.703125 51.488281 -6.910156 C 55.210938 -9.125 58.003906 -11.917969 59.859375 -15.289062 L 68.742188 -13.003906 L 68.742188 0 L 64.007812 0 L 64.007812 -4.734375 L 75.621094 -4.734375 L 75.621094 0 L 70.886719 0 L 70.886719 -93.421875 L 75.621094 -93.421875 L 75.621094 -88.6875 L 64.007812 -88.6875 L 64.007812 -93.421875 L 68.742188 -93.421875 L 68.742188 -39.820312 L 59.957031 -54.363281 C 57.960938 -57.664062 55.03125 -60.347656 51.164062 -62.421875 C 47.234375 -64.53125 42.972656 -65.585938 38.378906 -65.585938 C 33.011719 -65.585938 28.191406 -64.332031 23.925781 -61.820312 C 19.683594 -59.324219 16.339844 -55.792969 13.894531 -51.230469 C 11.40625 -46.585938 10.164062 -41.121094 10.164062 -34.84375 Z M 59.273438 -34.71875 C 59.273438 -39.132812 58.414062 -42.925781 56.691406 -46.09375 C 55.011719 -49.179688 52.769531 -51.535156 49.964844 -53.152344 C 47.121094 -54.792969 43.972656 -55.613281 40.527344 -55.613281 C 37.070312 -55.613281 33.941406 -54.808594 31.132812 -53.207031 C 28.378906 -51.628906 26.160156 -49.300781 24.484375 -46.21875 C 22.765625 -43.050781 21.90625 -39.261719 21.90625 -34.84375 C 21.90625 -30.335938 22.769531 -26.476562 24.496094 -23.261719 C 26.179688 -20.132812 28.402344 -17.761719 31.171875 -16.144531 C 33.96875 -14.515625 37.085938 -13.699219 40.527344 -13.699219 C 43.972656 -13.699219 47.121094 -14.519531 49.964844 -16.160156 C 52.765625 -17.773438 55.003906 -20.140625 56.679688 -23.261719 C 58.410156 -26.476562 59.273438 -30.292969 59.273438 -34.71875 Z M 68.742188 -34.71875 C 68.742188 -28.707031 67.503906 -23.390625 65.023438 -18.777344 C 62.492188 -14.074219 59.050781 -10.464844 54.695312 -7.953125 C 50.386719 -5.472656 45.664062 -4.230469 40.527344 -4.230469 C 35.378906 -4.230469 30.671875 -5.476562 26.398438 -7.96875 C 22.09375 -10.476562 18.679688 -14.082031 16.15625 -18.777344 C 13.675781 -23.390625 12.433594 -28.746094 12.433594 -34.84375 C 12.433594 -40.863281 13.679688 -46.164062 16.164062 -50.738281 C 18.699219 -55.398438 22.121094 -58.960938 26.433594 -61.425781 C 30.699219 -63.863281 35.394531 -65.082031 40.527344 -65.082031 C 45.664062 -65.082031 50.386719 -63.839844 54.695312 -61.355469 C 59.042969 -58.847656 62.480469 -55.269531 65.011719 -50.613281 C 67.5 -46.039062 68.742188 -40.738281 68.742188 -34.71875 Z M 68.742188 -34.71875 "/></g></g><g style="fill:#2196f3;fill-opacity:1;"><g transform="translate(308.343066, 155.238489)"><path style="stroke:none" d="M 68.617188 -87.996094 L 68.617188 -73.917969 L 39.894531 -73.917969 L 39.894531 -78.652344 L 44.628906 -78.652344 L 44.628906 4.734375 L 23.671875 4.734375 L 23.671875 -78.652344 L 28.40625 -78.652344 L 28.40625 -73.917969 L -0.441406 -73.917969 L -0.441406 -92.730469 L 68.617188 -92.730469 Z M 59.148438 -87.996094 L 63.882812 -87.996094 L 63.882812 -83.261719 L 4.292969 -83.261719 L 4.292969 -87.996094 L 9.027344 -87.996094 L 9.027344 -78.652344 L 4.292969 -78.652344 L 4.292969 -83.386719 L 33.140625 -83.386719 L 33.140625 0 L 28.40625 0 L 28.40625 -4.734375 L 39.894531 -4.734375 L 39.894531 0 L 35.160156 0 L 35.160156 -83.386719 L 63.882812 -83.386719 L 63.882812 -78.652344 L 59.148438 -78.652344 Z M 59.148438 -87.996094 "/></g></g><g style="fill:#2196f3;fill-opacity:1;"><g transform="translate(376.630645, 155.238489)"><path style="stroke:none" d="M 15.65625 -75.683594 C 12.160156 -75.683594 9.191406 -76.90625 6.75 -79.34375 C 4.3125 -81.785156 3.09375 -84.75 3.09375 -88.246094 C 3.09375 -91.742188 4.3125 -94.710938 6.75 -97.148438 C 9.191406 -99.589844 12.160156 -100.808594 15.65625 -100.808594 C 19.09375 -100.808594 22.011719 -99.574219 24.414062 -97.101562 C 26.78125 -94.667969 27.964844 -91.71875 27.964844 -88.246094 C 27.964844 -84.777344 26.78125 -81.824219 24.414062 -79.390625 C 22.011719 -76.921875 19.09375 -75.683594 15.65625 -75.683594 Z M 15.65625 -85.15625 C 16.425781 -85.15625 17.082031 -85.433594 17.625 -85.992188 C 18.207031 -86.589844 18.496094 -87.339844 18.496094 -88.246094 C 18.496094 -89.152344 18.207031 -89.90625 17.625 -90.5 C 17.082031 -91.058594 16.425781 -91.339844 15.65625 -91.339844 C 14.773438 -91.339844 14.039062 -91.042969 13.449219 -90.453125 C 12.855469 -89.863281 12.5625 -89.128906 12.5625 -88.246094 C 12.5625 -87.367188 12.855469 -86.628906 13.449219 -86.039062 C 14.039062 -85.449219 14.773438 -85.15625 15.65625 -85.15625 Z M 25.945312 -69.183594 L 25.945312 4.734375 L 4.988281 4.734375 L 4.988281 -73.917969 L 25.945312 -73.917969 Z M 16.476562 -69.183594 L 21.210938 -69.183594 L 21.210938 -64.449219 L 9.722656 -64.449219 L 9.722656 -69.183594 L 14.457031 -69.183594 L 14.457031 0 L 9.722656 0 L 9.722656 -4.734375 L 21.210938 -4.734375 L 21.210938 0 L 16.476562 0 Z M 16.476562 -69.183594 "/></g></g><g style="fill:#2196f3;fill-opacity:1;"><g transform="translate(407.681937, 155.238489)"><path style="stroke:none" d="M 0.695312 -34.71875 C 0.695312 -42.664062 2.3125 -49.660156 5.546875 -55.699219 C 8.832031 -61.835938 13.410156 -66.605469 19.28125 -70 C 25.105469 -73.371094 31.726562 -75.054688 39.136719 -75.054688 C 48.6875 -75.054688 56.640625 -72.679688 62.992188 -67.925781 C 69.417969 -63.121094 73.644531 -56.503906 75.679688 -48.074219 L 77.089844 -42.230469 L 55.113281 -42.230469 L 54.144531 -45.6875 C 53.265625 -48.828125 51.574219 -51.292969 49.066406 -53.089844 C 46.484375 -54.9375 43.171875 -55.863281 39.136719 -55.863281 C 33.980469 -55.863281 29.851562 -54.136719 26.753906 -50.683594 C 23.519531 -47.078125 21.90625 -41.757812 21.90625 -34.71875 C 21.90625 -27.585938 23.527344 -22.195312 26.769531 -18.546875 C 29.867188 -15.0625 33.988281 -13.320312 39.136719 -13.320312 C 43.191406 -13.320312 46.496094 -14.210938 49.046875 -16 C 51.5 -17.714844 53.203125 -20.226562 54.15625 -23.53125 L 55.144531 -26.953125 L 77.210938 -26.953125 L 75.65625 -21.019531 C 73.53125 -12.902344 69.261719 -6.386719 62.84375 -1.480469 C 56.441406 3.421875 48.539062 5.871094 39.136719 5.871094 C 31.726562 5.871094 25.105469 4.1875 19.28125 0.816406 C 13.40625 -2.582031 8.824219 -7.375 5.539062 -13.558594 C 2.308594 -19.640625 0.695312 -26.695312 0.695312 -34.71875 Z M 10.164062 -34.71875 C 10.164062 -28.265625 11.410156 -22.695312 13.902344 -18.003906 C 16.339844 -13.414062 19.714844 -9.875 24.023438 -7.378906 C 28.382812 -4.859375 33.417969 -3.597656 39.136719 -3.597656 C 46.398438 -3.597656 52.382812 -5.398438 57.089844 -9 C 61.785156 -12.589844 64.921875 -17.398438 66.496094 -23.417969 L 71.078125 -22.21875 L 71.078125 -17.484375 L 58.707031 -17.484375 L 58.707031 -22.21875 L 63.253906 -20.90625 C 61.683594 -15.460938 58.757812 -11.238281 54.476562 -8.242188 C 50.296875 -5.3125 45.183594 -3.851562 39.136719 -3.851562 C 31.15625 -3.851562 24.671875 -6.652344 19.691406 -12.257812 C 14.855469 -17.699219 12.433594 -25.1875 12.433594 -34.71875 C 12.433594 -44.175781 14.859375 -51.605469 19.707031 -57.007812 C 24.6875 -62.558594 31.164062 -65.332031 39.136719 -65.332031 C 45.199219 -65.332031 50.347656 -63.816406 54.582031 -60.789062 C 58.890625 -57.699219 61.785156 -53.519531 63.265625 -48.242188 L 58.707031 -46.964844 L 58.707031 -51.699219 L 71.078125 -51.699219 L 71.078125 -46.964844 L 66.476562 -45.851562 C 64.972656 -52.070312 61.921875 -56.898438 57.320312 -60.34375 C 52.648438 -63.835938 46.585938 -65.585938 39.136719 -65.585938 C 33.417969 -65.585938 28.382812 -64.324219 24.023438 -61.804688 C 19.707031 -59.308594 16.332031 -55.785156 13.894531 -51.230469 C 11.40625 -46.585938 10.164062 -41.082031 10.164062 -34.71875 Z M 10.164062 -34.71875 "/></g></g><g style="fill:#2196f3;fill-opacity:1;"><g transform="translate(484.300339, 155.238489)"><path style="stroke:none" d="M 44.8125 3.144531 L 17.671875 -27.40625 L 21.210938 -30.550781 L 25.945312 -30.550781 L 25.945312 4.734375 L 4.988281 4.734375 L 4.988281 -98.15625 L 25.945312 -98.15625 L 25.945312 -38.503906 L 21.210938 -38.503906 L 17.632812 -41.609375 L 45.6875 -73.917969 L 74.871094 -73.917969 L 34.75 -31.464844 L 31.308594 -34.71875 L 34.757812 -37.964844 L 74.972656 4.734375 L 46.226562 4.734375 Z M 51.890625 -3.144531 L 48.351562 0 L 48.351562 -4.734375 L 64.007812 -4.734375 L 64.007812 0 L 60.5625 3.246094 L 24.800781 -34.722656 L 60.441406 -72.4375 L 63.882812 -69.183594 L 63.882812 -64.449219 L 47.847656 -64.449219 L 47.847656 -69.183594 L 51.421875 -66.078125 L 16.476562 -25.832031 L 16.476562 -93.421875 L 21.210938 -93.421875 L 21.210938 -88.6875 L 9.722656 -88.6875 L 9.722656 -93.421875 L 14.457031 -93.421875 L 14.457031 0 L 9.722656 0 L 9.722656 -4.734375 L 21.210938 -4.734375 L 21.210938 0 L 16.476562 0 L 16.476562 -43.011719 Z M 51.890625 -3.144531 "/></g></g><g style="fill:#2196f3;fill-opacity:1;"><g transform="translate(549.306092, 155.238489)"><path style="stroke:none" d="M 77.578125 -37.242188 C 77.578125 -34.890625 77.445312 -32.414062 77.175781 -29.8125 L 76.738281 -25.566406 L 17.167969 -25.566406 L 17.167969 -30.300781 L 21.894531 -30.589844 C 22.238281 -25.0625 24.054688 -20.8125 27.347656 -17.847656 C 30.695312 -14.828125 34.792969 -13.320312 39.640625 -13.320312 C 43.617188 -13.320312 46.859375 -14.195312 49.371094 -15.941406 C 51.855469 -17.671875 53.601562 -19.988281 54.613281 -22.890625 L 55.71875 -26.070312 L 77.691406 -26.070312 L 76.015625 -20.066406 C 73.878906 -12.382812 69.601562 -6.136719 63.1875 -1.324219 C 56.789062 3.472656 48.941406 5.871094 39.640625 5.871094 C 32.242188 5.871094 25.589844 4.191406 19.6875 0.832031 C 13.730469 -2.558594 9.0625 -7.363281 5.6875 -13.585938 C 2.359375 -19.71875 0.695312 -26.761719 0.695312 -34.71875 C 0.695312 -42.660156 2.308594 -49.667969 5.539062 -55.75 C 8.835938 -61.957031 13.476562 -66.738281 19.460938 -70.09375 C 25.355469 -73.402344 32.082031 -75.054688 39.640625 -75.054688 C 47.039062 -75.054688 53.625 -73.417969 59.398438 -70.148438 C 65.230469 -66.84375 69.730469 -62.289062 72.898438 -56.492188 C 76.019531 -50.777344 77.578125 -44.363281 77.578125 -37.242188 Z M 68.109375 -37.242188 C 68.109375 -42.75 66.9375 -47.652344 64.585938 -51.953125 C 62.28125 -56.171875 58.996094 -59.488281 54.730469 -61.910156 C 50.402344 -64.359375 45.375 -65.585938 39.640625 -65.585938 C 33.734375 -65.585938 28.550781 -64.335938 24.09375 -61.835938 C 19.726562 -59.386719 16.328125 -55.875 13.902344 -51.308594 C 11.410156 -46.617188 10.164062 -41.085938 10.164062 -34.71875 C 10.164062 -28.367188 11.445312 -22.828125 14.007812 -18.101562 C 16.523438 -13.464844 19.980469 -9.898438 24.371094 -7.398438 C 28.824219 -4.863281 33.914062 -3.597656 39.640625 -3.597656 C 46.835938 -3.597656 52.792969 -5.367188 57.503906 -8.902344 C 62.203125 -12.421875 65.332031 -16.992188 66.894531 -22.605469 L 71.457031 -21.335938 L 71.457031 -16.601562 L 59.085938 -16.601562 L 59.085938 -21.335938 L 63.554688 -19.78125 C 61.871094 -14.941406 58.949219 -11.070312 54.78125 -8.171875 C 50.644531 -5.289062 45.597656 -3.851562 39.640625 -3.851562 C 32.371094 -3.851562 26.15625 -6.171875 21.007812 -10.8125 C 15.796875 -15.503906 12.945312 -21.902344 12.445312 -30.007812 L 12.132812 -35.035156 L 72.464844 -35.035156 L 72.464844 -30.300781 L 67.757812 -30.785156 C 67.992188 -33.066406 68.109375 -35.21875 68.109375 -37.242188 Z M 56.242188 -39.640625 C 56.242188 -43.128906 55.507812 -46.070312 54.039062 -48.464844 C 52.578125 -50.84375 50.59375 -52.652344 48.085938 -53.890625 C 45.421875 -55.207031 42.441406 -55.863281 39.136719 -55.863281 C 34.546875 -55.863281 30.664062 -54.421875 27.484375 -51.539062 C 24.316406 -48.664062 22.492188 -44.554688 22.011719 -39.21875 L 17.296875 -39.640625 L 17.296875 -44.375 L 60.976562 -44.375 L 60.976562 -39.640625 Z M 65.710938 -34.90625 L 12.117188 -34.90625 L 12.582031 -40.066406 C 13.28125 -47.859375 16.125 -54.019531 21.121094 -58.550781 C 26.105469 -63.074219 32.109375 -65.332031 39.136719 -65.332031 C 43.914062 -65.332031 48.292969 -64.351562 52.28125 -62.382812 C 56.421875 -60.339844 59.699219 -57.347656 62.109375 -53.417969 C 64.511719 -49.5 65.710938 -44.910156 65.710938 -39.640625 Z M 65.710938 -34.90625 "/></g></g><g style="fill:#2196f3;fill-opacity:1;"><g transform="translate(627.565443, 155.238489)"><path style="stroke:none" d="M 28.46875 -59.714844 L 28.46875 -18.9375 C 28.46875 -17.71875 28.582031 -16.738281 28.804688 -15.992188 C 28.925781 -15.589844 29.050781 -15.324219 29.179688 -15.203125 C 29.316406 -15.066406 29.621094 -14.933594 30.089844 -14.800781 C 30.914062 -14.570312 31.996094 -14.457031 33.328125 -14.457031 L 46.523438 -14.457031 L 46.523438 4.734375 L 31.4375 4.734375 C 23.808594 4.734375 17.941406 2.84375 13.835938 -0.9375 C 9.621094 -4.820312 7.511719 -10.820312 7.511719 -18.9375 L 7.511719 -59.714844 L 12.246094 -59.714844 L 12.246094 -54.980469 L -1.453125 -54.980469 L -1.453125 -73.917969 L 12.246094 -73.917969 L 12.246094 -69.183594 L 7.511719 -69.183594 L 7.511719 -91.339844 L 28.46875 -91.339844 L 28.46875 -69.183594 L 23.734375 -69.183594 L 23.734375 -73.917969 L 46.523438 -73.917969 L 46.523438 -54.980469 L 23.734375 -54.980469 L 23.734375 -59.714844 Z M 19 -64.449219 L 41.789062 -64.449219 L 41.789062 -59.714844 L 37.054688 -59.714844 L 37.054688 -69.183594 L 41.789062 -69.183594 L 41.789062 -64.449219 L 19 -64.449219 L 19 -86.605469 L 23.734375 -86.605469 L 23.734375 -81.871094 L 12.246094 -81.871094 L 12.246094 -86.605469 L 16.980469 -86.605469 L 16.980469 -64.449219 L 3.28125 -64.449219 L 3.28125 -69.183594 L 8.015625 -69.183594 L 8.015625 -59.714844 L 3.28125 -59.714844 L 3.28125 -64.449219 L 16.980469 -64.449219 L 16.980469 -18.9375 C 16.980469 -13.589844 18.070312 -9.910156 20.25 -7.902344 C 22.542969 -5.789062 26.269531 -4.734375 31.4375 -4.734375 L 41.789062 -4.734375 L 41.789062 0 L 37.054688 0 L 37.054688 -9.722656 L 41.789062 -9.722656 L 41.789062 -4.988281 L 33.328125 -4.988281 C 28.515625 -4.988281 24.933594 -6.125 22.582031 -8.40625 C 20.195312 -10.726562 19 -14.234375 19 -18.9375 Z M 19 -64.449219 "/></g></g><g style="fill:#ffffff;fill-opacity:1;"><g transform="translate(-2.169805, 155.238489)"><path style="stroke:none" d="M 59.46875 -88 L 59.46875 -78.65625 L 21.203125 -78.65625 L 21.203125 -48.984375 L 52.265625 -48.984375 L 52.265625 -39.640625 L 21.203125 -39.640625 L 21.203125 0 L 9.71875 0 L 9.71875 -88 Z M 59.46875 -88 "/></g></g><g style="fill:#ffffff;fill-opacity:1;"><g transform="translate(61.44746, 155.238489)"><path style="stroke:none" d="M 39.890625 1.140625 C 33.410156 1.140625 27.539062 -0.332031 22.28125 -3.28125 C 17.019531 -6.226562 12.894531 -10.414062 9.90625 -15.84375 C 6.914062 -21.269531 5.421875 -27.5625 5.421875 -34.71875 C 5.421875 -41.789062 6.957031 -48.039062 10.03125 -53.46875 C 13.101562 -58.894531 17.289062 -63.0625 22.59375 -65.96875 C 27.894531 -68.875 33.832031 -70.328125 40.40625 -70.328125 C 46.96875 -70.328125 52.898438 -68.875 58.203125 -65.96875 C 63.503906 -63.0625 67.691406 -58.914062 70.765625 -53.53125 C 73.835938 -48.144531 75.375 -41.875 75.375 -34.71875 C 75.375 -27.5625 73.796875 -21.269531 70.640625 -15.84375 C 67.484375 -10.414062 63.210938 -6.226562 57.828125 -3.28125 C 52.441406 -0.332031 46.460938 1.140625 39.890625 1.140625 Z M 39.890625 -8.96875 C 44.015625 -8.96875 47.882812 -9.929688 51.5 -11.859375 C 55.125 -13.796875 58.050781 -16.703125 60.28125 -20.578125 C 62.507812 -24.453125 63.625 -29.164062 63.625 -34.71875 C 63.625 -40.269531 62.53125 -44.984375 60.34375 -48.859375 C 58.15625 -52.734375 55.289062 -55.613281 51.75 -57.5 C 48.21875 -59.394531 44.394531 -60.34375 40.28125 -60.34375 C 36.070312 -60.34375 32.21875 -59.394531 28.71875 -57.5 C 25.226562 -55.613281 22.429688 -52.734375 20.328125 -48.859375 C 18.222656 -44.984375 17.171875 -40.269531 17.171875 -34.71875 C 17.171875 -29.082031 18.203125 -24.328125 20.265625 -20.453125 C 22.328125 -16.578125 25.082031 -13.691406 28.53125 -11.796875 C 31.976562 -9.910156 35.765625 -8.96875 39.890625 -8.96875 Z M 39.890625 -8.96875 "/></g></g><g style="fill:#ffffff;fill-opacity:1;"><g transform="translate(142.231297, 155.238489)"><path style="stroke:none" d="M 39.890625 1.140625 C 33.410156 1.140625 27.539062 -0.332031 22.28125 -3.28125 C 17.019531 -6.226562 12.894531 -10.414062 9.90625 -15.84375 C 6.914062 -21.269531 5.421875 -27.5625 5.421875 -34.71875 C 5.421875 -41.789062 6.957031 -48.039062 10.03125 -53.46875 C 13.101562 -58.894531 17.289062 -63.0625 22.59375 -65.96875 C 27.894531 -68.875 33.832031 -70.328125 40.40625 -70.328125 C 46.96875 -70.328125 52.898438 -68.875 58.203125 -65.96875 C 63.503906 -63.0625 67.691406 -58.914062 70.765625 -53.53125 C 73.835938 -48.144531 75.375 -41.875 75.375 -34.71875 C 75.375 -27.5625 73.796875 -21.269531 70.640625 -15.84375 C 67.484375 -10.414062 63.210938 -6.226562 57.828125 -3.28125 C 52.441406 -0.332031 46.460938 1.140625 39.890625 1.140625 Z M 39.890625 -8.96875 C 44.015625 -8.96875 47.882812 -9.929688 51.5 -11.859375 C 55.125 -13.796875 58.050781 -16.703125 60.28125 -20.578125 C 62.507812 -24.453125 63.625 -29.164062 63.625 -34.71875 C 63.625 -40.269531 62.53125 -44.984375 60.34375 -48.859375 C 58.15625 -52.734375 55.289062 -55.613281 51.75 -57.5 C 48.21875 -59.394531 44.394531 -60.34375 40.28125 -60.34375 C 36.070312 -60.34375 32.21875 -59.394531 28.71875 -57.5 C 25.226562 -55.613281 22.429688 -52.734375 20.328125 -48.859375 C 18.222656 -44.984375 17.171875 -40.269531 17.171875 -34.71875 C 17.171875 -29.082031 18.203125 -24.328125 20.265625 -20.453125 C 22.328125 -16.578125 25.082031 -13.691406 28.53125 -11.796875 C 31.976562 -9.910156 35.765625 -8.96875 39.890625 -8.96875 Z M 39.890625 -8.96875 "/></g></g><g style="fill:#ffffff;fill-opacity:1;"><g transform="translate(223.015134, 155.238489)"><path style="stroke:none" d="M 5.421875 -34.84375 C 5.421875 -41.914062 6.851562 -48.125 9.71875 -53.46875 C 12.582031 -58.8125 16.515625 -62.957031 21.515625 -65.90625 C 26.523438 -68.851562 32.144531 -70.328125 38.375 -70.328125 C 43.757812 -70.328125 48.765625 -69.082031 53.390625 -66.59375 C 58.023438 -64.113281 61.566406 -60.851562 64.015625 -56.8125 L 64.015625 -93.421875 L 75.625 -93.421875 L 75.625 0 L 64.015625 0 L 64.015625 -13 C 61.734375 -8.875 58.363281 -5.484375 53.90625 -2.828125 C 49.445312 -0.179688 44.226562 1.140625 38.25 1.140625 C 32.101562 1.140625 26.523438 -0.375 21.515625 -3.40625 C 16.515625 -6.4375 12.582031 -10.6875 9.71875 -16.15625 C 6.851562 -21.625 5.421875 -27.851562 5.421875 -34.84375 Z M 64.015625 -34.71875 C 64.015625 -39.9375 62.960938 -44.476562 60.859375 -48.34375 C 58.753906 -52.21875 55.910156 -55.1875 52.328125 -57.25 C 48.753906 -59.3125 44.820312 -60.34375 40.53125 -60.34375 C 36.238281 -60.34375 32.320312 -59.332031 28.78125 -57.3125 C 25.25 -55.289062 22.429688 -52.34375 20.328125 -48.46875 C 18.222656 -44.601562 17.171875 -40.0625 17.171875 -34.84375 C 17.171875 -29.539062 18.222656 -24.929688 20.328125 -21.015625 C 22.429688 -17.109375 25.25 -14.125 28.78125 -12.0625 C 32.320312 -10 36.238281 -8.96875 40.53125 -8.96875 C 44.820312 -8.96875 48.753906 -10 52.328125 -12.0625 C 55.910156 -14.125 58.753906 -17.109375 60.859375 -21.015625 C 62.960938 -24.929688 64.015625 -29.5 64.015625 -34.71875 Z M 64.015625 -34.71875 "/></g></g><g style="fill:#ffffff;fill-opacity:1;"><g transform="translate(308.343066, 155.238489)"><path style="stroke:none" d="M 63.875 -88 L 63.875 -78.65625 L 39.890625 -78.65625 L 39.890625 0 L 28.40625 0 L 28.40625 -78.65625 L 4.296875 -78.65625 L 4.296875 -88 Z M 63.875 -88 "/></g></g><g style="fill:#ffffff;fill-opacity:1;"><g transform="translate(376.630645, 155.238489)"><path style="stroke:none" d="M 15.65625 -80.421875 C 13.46875 -80.421875 11.613281 -81.175781 10.09375 -82.6875 C 8.582031 -84.207031 7.828125 -86.0625 7.828125 -88.25 C 7.828125 -90.4375 8.582031 -92.285156 10.09375 -93.796875 C 11.613281 -95.316406 13.46875 -96.078125 15.65625 -96.078125 C 17.757812 -96.078125 19.546875 -95.316406 21.015625 -93.796875 C 22.492188 -92.285156 23.234375 -90.4375 23.234375 -88.25 C 23.234375 -86.0625 22.492188 -84.207031 21.015625 -82.6875 C 19.546875 -81.175781 17.757812 -80.421875 15.65625 -80.421875 Z M 21.203125 -69.1875 L 21.203125 0 L 9.71875 0 L 9.71875 -69.1875 Z M 21.203125 -69.1875 "/></g></g><g style="fill:#ffffff;fill-opacity:1;"><g transform="translate(407.681937, 155.238489)"><path style="stroke:none" d="M 5.421875 -34.71875 C 5.421875 -41.875 6.851562 -48.125 9.71875 -53.46875 C 12.582031 -58.8125 16.5625 -62.957031 21.65625 -65.90625 C 26.75 -68.851562 32.578125 -70.328125 39.140625 -70.328125 C 47.640625 -70.328125 54.644531 -68.265625 60.15625 -64.140625 C 65.664062 -60.015625 69.304688 -54.289062 71.078125 -46.96875 L 58.703125 -46.96875 C 57.523438 -51.175781 55.234375 -54.5 51.828125 -56.9375 C 48.421875 -59.375 44.191406 -60.59375 39.140625 -60.59375 C 32.578125 -60.59375 27.273438 -58.34375 23.234375 -53.84375 C 19.191406 -49.34375 17.171875 -42.96875 17.171875 -34.71875 C 17.171875 -26.382812 19.191406 -19.941406 23.234375 -15.390625 C 27.273438 -10.847656 32.578125 -8.578125 39.140625 -8.578125 C 44.191406 -8.578125 48.398438 -9.753906 51.765625 -12.109375 C 55.128906 -14.472656 57.441406 -17.84375 58.703125 -22.21875 L 71.078125 -22.21875 C 69.222656 -15.144531 65.519531 -9.484375 59.96875 -5.234375 C 54.414062 -0.984375 47.472656 1.140625 39.140625 1.140625 C 32.578125 1.140625 26.75 -0.332031 21.65625 -3.28125 C 16.5625 -6.226562 12.582031 -10.394531 9.71875 -15.78125 C 6.851562 -21.164062 5.421875 -27.476562 5.421875 -34.71875 Z M 5.421875 -34.71875 "/></g></g><g style="fill:#ffffff;fill-opacity:1;"><g transform="translate(484.300339, 155.238489)"><path style="stroke:none" d="M 48.359375 0 L 21.203125 -30.546875 L 21.203125 0 L 9.71875 0 L 9.71875 -93.421875 L 21.203125 -93.421875 L 21.203125 -38.5 L 47.84375 -69.1875 L 63.875 -69.1875 L 31.3125 -34.71875 L 64.015625 0 Z M 48.359375 0 "/></g></g><g style="fill:#ffffff;fill-opacity:1;"><g transform="translate(549.306092, 155.238489)"><path style="stroke:none" d="M 72.84375 -37.25 C 72.84375 -35.0625 72.71875 -32.742188 72.46875 -30.296875 L 17.171875 -30.296875 C 17.585938 -23.484375 19.921875 -18.160156 24.171875 -14.328125 C 28.421875 -10.492188 33.578125 -8.578125 39.640625 -8.578125 C 44.609375 -8.578125 48.753906 -9.734375 52.078125 -12.046875 C 55.398438 -14.367188 57.734375 -17.46875 59.078125 -21.34375 L 71.453125 -21.34375 C 69.609375 -14.6875 65.90625 -9.273438 60.34375 -5.109375 C 54.789062 -0.941406 47.890625 1.140625 39.640625 1.140625 C 33.078125 1.140625 27.207031 -0.332031 22.03125 -3.28125 C 16.851562 -6.226562 12.789062 -10.414062 9.84375 -15.84375 C 6.894531 -21.269531 5.421875 -27.5625 5.421875 -34.71875 C 5.421875 -41.875 6.851562 -48.144531 9.71875 -53.53125 C 12.582031 -58.914062 16.601562 -63.0625 21.78125 -65.96875 C 26.957031 -68.875 32.910156 -70.328125 39.640625 -70.328125 C 46.203125 -70.328125 52.007812 -68.894531 57.0625 -66.03125 C 62.113281 -63.164062 66.003906 -59.226562 68.734375 -54.21875 C 71.472656 -49.21875 72.84375 -43.5625 72.84375 -37.25 Z M 60.984375 -39.640625 C 60.984375 -44.015625 60.015625 -47.78125 58.078125 -50.9375 C 56.140625 -54.09375 53.507812 -56.488281 50.1875 -58.125 C 46.863281 -59.769531 43.179688 -60.59375 39.140625 -60.59375 C 33.328125 -60.59375 28.378906 -58.738281 24.296875 -55.03125 C 20.222656 -51.332031 17.890625 -46.203125 17.296875 -39.640625 Z M 60.984375 -39.640625 "/></g></g><g style="fill:#ffffff;fill-opacity:1;"><g transform="translate(627.565443, 155.238489)"><path style="stroke:none" d="M 23.734375 -59.71875 L 23.734375 -18.9375 C 23.734375 -15.570312 24.445312 -13.191406 25.875 -11.796875 C 27.3125 -10.410156 29.796875 -9.71875 33.328125 -9.71875 L 41.78125 -9.71875 L 41.78125 0 L 31.4375 0 C 25.039062 0 20.242188 -1.472656 17.046875 -4.421875 C 13.847656 -7.367188 12.25 -12.207031 12.25 -18.9375 L 12.25 -59.71875 L 3.28125 -59.71875 L 3.28125 -69.1875 L 12.25 -69.1875 L 12.25 -86.609375 L 23.734375 -86.609375 L 23.734375 -69.1875 L 41.78125 -69.1875 L 41.78125 -59.71875 Z M 23.734375 -59.71875 "/></g></g></g></svg>